<svg height="464pt" viewBox="0 0 464 464.00913" width="464pt" xmlns="http://www.w3.org/2000/svg"><path d="m24.003906 200.007812h416c13.253906 0 24 10.746094 24 24 0 13.257813-10.746094 24-24 24h-416c-13.253906 0-23.99999975-10.742187-23.99999975-24 0-13.253906 10.74609375-24 23.99999975-24zm0 0" fill="#f06659"/><path d="m380.398438 464.007812h-296.800782c-15.863281 0-29.332031-11.617187-31.65625-27.3125l-27.9375-188.6875h416l-27.953125 188.6875c-2.320312 15.695313-15.792969 27.3125-31.652343 27.3125zm0 0" fill="#e3584b"/><path d="m380.804688 248.007812c-59.199219 99.816407-150.574219 170.59375-226.089844 216h225.683594c15.859374 0 29.332031-11.617187 31.652343-27.3125l27.953125-188.6875zm0 0" fill="#d65145"/><g fill="#b8443f"><path d="m240.003906 280.007812h16v64h-16zm0 0"/><path d="m200.003906 280.007812h16v64h-16zm0 0"/><path d="m160.003906 280.007812h16v64h-16zm0 0"/><path d="m360.003906 280.007812h16v64h-16zm0 0"/><path d="m320.003906 280.007812h16v64h-16zm0 0"/><path d="m280.003906 280.007812h16v64h-16zm0 0"/><path d="m120.003906 280.007812h16v64h-16zm0 0"/><path d="m80.003906 280.007812h16v64h-16zm0 0"/><path d="m240.003906 368.007812h16v64h-16zm0 0"/><path d="m200.003906 368.007812h16v64h-16zm0 0"/><path d="m160.003906 368.007812h16v64h-16zm0 0"/><path d="m360.003906 368.007812h16v64h-16zm0 0"/><path d="m320.003906 368.007812h16v64h-16zm0 0"/><path d="m280.003906 368.007812h16v64h-16zm0 0"/><path d="m120.003906 368.007812h16v64h-16zm0 0"/><path d="m80.003906 368.007812h16v64h-16zm0 0"/></g><path d="m161.988281 200.007812h-57.984375l76.066406-183.65625c4.269532-9.988281 14.125-16.4374995 24.992188-16.3437495 8.753906-.2304685 17.042969 3.9453125 22.070312 11.1171875 5.027344 7.171875 6.125 16.386719 2.917969 24.539062zm0 0" fill="#4398d1"/><path d="m302.019531 200.007812h57.984375l-76.0625-183.65625c-4.269531-9.988281-14.128906-16.4374995-24.992187-16.3437495-8.757813-.2304685-17.046875 3.9453125-22.074219 11.1171875s-6.121094 16.386719-2.917969 24.539062zm0 0" fill="#4398d1"/></svg>