<?xml version="1.0" encoding="iso-8859-1"?>
<!-- Generator: Adobe Illustrator 19.0.0, SVG Export Plug-In . SVG Version: 6.00 Build 0)  -->
<svg xmlns="http://www.w3.org/2000/svg" xmlns:xlink="http://www.w3.org/1999/xlink" version="1.1" id="Layer_1" x="0px" y="0px" viewBox="0 0 512 512" style="enable-background:new 0 0 512 512;" xml:space="preserve" width="512" height="512">
<g id="XMLID_1807_">
	<g id="XMLID_1778_">
		<path id="XMLID_1175_" style="fill:#CAEDFF;" d="M501.212,225.044l-7.005,35.819L458.69,442.53    c-0.756,3.869-4.146,6.66-8.088,6.66H265.085l-36.808-188.327l-7.016-35.819H501.212z"/>
		<path id="XMLID_1171_" style="fill:#76C2E0;" d="M368.968,366.333v82.857h-15.453v-82.857c0-4.275,3.461-7.726,7.726-7.726    C365.507,358.606,368.968,362.057,368.968,366.333z"/>
		<path id="XMLID_1928_" style="fill:#76C2E0;" d="M387.876,225.046c-1.221,2.485-2.809,4.796-4.721,6.849    c-3.77,4.04-8.642,6.87-13.935,8.21l-40.877,209.084h-63.26l-36.804-188.321l-7.011-35.821H387.876z"/>
		<path id="XMLID_1813_" style="fill:#76C2E0;" d="M501.216,225.041l-7.007,35.828l-35.517,181.663    c-0.756,3.869-4.146,6.66-8.088,6.66h-6.542l36.819-188.323l7.007-35.828H501.216z"/>
		<path id="XMLID_1812_" style="fill:#76C2E0;" d="M501.216,225.041l-7.007,35.828h-18.675v8.233    c0,19.84-16.136,35.976-35.967,35.976c-19.831,0-35.967-16.136-35.967-35.976v-7.425c0-0.443-0.365-0.809-0.809-0.809    c-0.443,0-0.809,0.365-0.809,0.809v84.202c0,18.988-15.449,34.437-34.437,34.437c-18.988,0-34.437-15.449-34.437-34.437V269.19    c0-4.591-3.73-8.32-8.312-8.32c-4.591,0-8.32,3.73-8.32,8.32v17.327c0,20.501-16.675,37.167-37.167,37.167    c-20.492,0-37.167-16.667-37.167-37.167V260.87h-13.867l-7.007-35.828H501.216z"/>
		<path id="XMLID_1796_" style="fill:#76C2E0;" d="M443.689,225.044h-164.9c-0.031,0.505-0.031,1.01,0.021,1.514l21.438,222.632    h15.535l-20.717-215.132h132.357L406.695,449.19h15.535l21.448-222.632C443.73,226.053,443.73,225.549,443.689,225.044z"/>
		<path id="XMLID_1933_" style="fill:#FB4239;" d="M502.037,247.829h-39.548v21.281c0,6.33-2.56,12.067-6.708,16.215    c-4.148,4.148-9.884,6.708-16.215,6.708c-12.661,0-22.923-10.262-22.923-22.923v-7.432c0-3.824-1.545-7.292-4.051-9.798    c-2.506-2.506-5.974-4.051-9.798-4.051c-7.648,0-13.849,6.201-13.849,13.849v84.206c0,5.898-2.398,11.256-6.266,15.124    c-3.878,3.867-9.225,6.265-15.134,6.265c-9.474,0-17.511-6.157-20.32-14.691c-0.691-2.106-1.069-4.364-1.069-6.698v-76.698    c0-5.898-2.398-11.235-6.265-15.102c-3.867-3.867-9.204-6.255-15.102-6.255c-11.796,0-21.357,9.56-21.357,21.357v17.338    c0,6.665-2.701,12.693-7.065,17.057c-4.364,4.364-10.403,7.065-17.057,7.065c-13.33,0-24.122-10.803-24.122-24.122v-38.695    h-34.741c-5.779,0-10.338-4.904-9.938-10.662c5.131-73.63,63.022-132.742,136.134-139.753c4.796-0.454,9.668-0.691,14.594-0.691    c79.874,0,145.262,61.974,150.739,140.444C512.375,242.925,507.817,247.829,502.037,247.829z"/>
		<path id="XMLID_1931_" style="fill:#E21717;" d="M383.155,231.895c-3.77,4.04-8.642,6.87-13.935,8.21l-21.994,112.476    c-0.691-2.106-1.069-4.364-1.069-6.698v-76.698c0-5.898-2.398-11.235-6.265-15.102c-3.867-3.867-9.204-6.255-15.102-6.255    c-11.796,0-21.357,9.56-21.357,21.357v17.338c0,6.665-2.701,12.693-7.065,17.057c-4.364,4.364-10.403,7.065-17.057,7.065    c-13.33,0-24.122-10.803-24.122-24.122v-38.695h-34.741c-5.779,0-10.338-4.904-9.938-10.662    c5.131-73.63,63.022-132.742,136.134-139.753c25.775,32.17,41.223,71.383,44.129,112.984    C391.322,218.284,388.545,226.116,383.155,231.895z"/>
		<path id="XMLID_1797_" style="fill:#E21717;" d="M502.033,247.829h-16.806c5.773,0,10.337-4.903,9.937-10.659    c-5.277-75.708-66.318-136.045-142.322-140.21c2.782-0.157,5.582-0.235,8.398-0.235c79.864,0,145.261,61.963,150.729,140.444    C512.371,242.925,507.815,247.829,502.033,247.829z"/>
		<path id="XMLID_1785_" style="fill:#E21717;" d="M472.639,216.743c-4.267,0-7.726-3.459-7.726-7.726v-1.33    c0-4.268,3.459-7.726,7.726-7.726s7.726,3.459,7.726,7.726v1.33C480.365,213.285,476.906,216.743,472.639,216.743z"/>
		<path id="XMLID_1784_" style="fill:#E21717;" d="M459.833,195.041c-4.267,0-7.726-3.459-7.726-7.726v-1.33    c0-4.268,3.459-7.726,7.726-7.726c4.267,0,7.726,3.459,7.726,7.726v1.33C467.559,191.582,464.1,195.041,459.833,195.041z"/>
		<path id="XMLID_1781_" style="fill:#E21717;" d="M427.027,153.745c-4.267,0-7.726-3.459-7.726-7.726v-1.331    c0-4.268,3.459-7.726,7.726-7.726s7.726,3.459,7.726,7.726v1.331C434.753,150.286,431.294,153.745,427.027,153.745z"/>
		<path id="XMLID_1779_" style="fill:#E21717;" d="M435.993,214.747c-4.267,0-7.726-3.459-7.726-7.726v-1.33    c0-4.268,3.459-7.726,7.726-7.726s7.726,3.459,7.726,7.726v1.33C443.72,211.289,440.26,214.747,435.993,214.747z"/>
		<path id="XMLID_2126_" style="fill:#E21717;" d="M290.24,226.552c-4.267,0-7.726-3.459-7.726-7.726v-1.331    c0-4.268,3.459-7.726,7.726-7.726s7.726,3.459,7.726,7.726v1.331C297.966,223.093,294.507,226.552,290.24,226.552z"/>
	</g>
	<g id="XMLID_1760_">
		<path id="XMLID_1213_" style="fill:#CAEDFF;" d="M361.242,196.456l-8.705,44.524l-44.448,227.334    c-0.756,3.869-4.146,6.66-8.088,6.66H74.624c-3.942,0-7.332-2.792-8.088-6.661L22.108,240.981l-8.715-44.524H361.242z"/>
		<path id="XMLID_1174_" style="fill:#76C2E0;" d="M195.043,372.009v102.966h-15.453V372.009c0-4.265,3.461-7.726,7.726-7.726    C191.582,364.283,195.043,367.744,195.043,372.009z"/>
		<path id="XMLID_1704_" style="fill:#76C2E0;" d="M361.239,196.46l-8.707,44.518l-44.447,227.335    c-0.756,3.869-4.146,6.66-8.088,6.66h-9.774l45.749-233.995l8.707-44.518H361.239z"/>
		<path id="XMLID_536_" style="fill:#76C2E0;" d="M361.239,196.46l-8.707,44.518h-23.204v10.23c0,24.651-20.05,44.701-44.69,44.701    s-44.69-20.05-44.69-44.701v-9.225c0-0.551-0.454-1.005-1.005-1.005c-0.551,0-1.005,0.454-1.005,1.005v104.623    c0,23.593-19.196,42.789-42.789,42.789c-23.593,0-42.789-19.196-42.789-42.789v-95.29c0-5.704-4.634-10.338-10.327-10.338    c-5.704,0-10.338,4.634-10.338,10.338v21.53c0,25.472-20.719,46.181-46.181,46.181s-46.181-20.709-46.181-46.181v-31.868h-17.23    l-8.707-44.518H361.239z"/>
		<path id="XMLID_2127_" style="fill:#76C2E0;" d="M287.893,196.456H86.741c-0.041,0.505-0.041,1.02,0.01,1.525l26.651,276.994    h15.535l-25.93-269.474h168.619l-25.94,269.474h15.545l26.651-276.994C287.934,197.476,287.934,196.961,287.893,196.456z"/>
		<path id="XMLID_1477_" style="fill:#B96340;" d="M362.26,224.774c7.175,0,12.844-6.088,12.345-13.245    c-6.796-97.509-88.05-174.502-187.287-174.502S6.826,114.02,0.031,211.529c-0.499,7.157,5.17,13.245,12.345,13.245h43.162v48.075    c0,16.555,13.421,29.976,29.976,29.976h0c16.555,0,29.976-13.421,29.976-29.976v-21.535c0-14.658,11.882-26.54,26.54-26.54h0    c14.658,0,26.54,11.882,26.54,26.54v95.291c0,14.681,11.901,26.583,26.583,26.583h0c14.681,0,26.583-11.901,26.583-26.583V241.982    c0-9.504,7.704-17.208,17.208-17.208h0c9.504,0,17.208,7.704,17.208,17.208v9.23c0,15.733,12.754,28.487,28.487,28.487h0    c15.733,0,28.487-12.754,28.487-28.487v-26.438H362.26z"/>
		<path id="XMLID_1752_" style="fill:#A24223;" d="M362.255,224.774h-20.881c7.173,0,12.844-6.093,12.347-13.244    c-6.557-94.069-82.402-169.039-176.838-174.213c3.457-0.195,6.935-0.292,10.435-0.292c99.233,0,180.49,76.99,187.284,174.505    C375.099,218.681,369.438,224.774,362.255,224.774z"/>
		<path id="XMLID_1738_" style="fill:#A24223;" d="M325.731,184.276c-4.267,0-7.726-3.459-7.726-7.726v-1.653    c0-4.268,3.459-7.726,7.726-7.726c4.267,0,7.726,3.459,7.726,7.726v1.653C333.457,180.817,329.998,184.276,325.731,184.276z"/>
		<path id="XMLID_1740_" style="fill:#A24223;" d="M309.82,157.311c-4.267,0-7.726-3.459-7.726-7.726v-1.654    c0-4.268,3.459-7.726,7.726-7.726c4.267,0,7.726,3.459,7.726,7.726v1.654C317.546,153.852,314.087,157.311,309.82,157.311z"/>
		<path id="XMLID_1739_" style="fill:#A24223;" d="M269.057,105.998c-4.267,0-7.726-3.459-7.726-7.726v-1.653    c0-4.268,3.459-7.726,7.726-7.726c4.267,0,7.726,3.459,7.726,7.726v1.653C276.784,102.54,273.324,105.998,269.057,105.998z"/>
		<path id="XMLID_1741_" style="fill:#A24223;" d="M280.198,181.796c-4.267,0-7.726-3.459-7.726-7.726v-1.653    c0-4.268,3.459-7.726,7.726-7.726c4.267,0,7.726,3.459,7.726,7.726v1.653C287.925,178.337,284.466,181.796,280.198,181.796z"/>
		<path id="XMLID_102_" style="fill:#A24223;" d="M99.097,196.463c-4.267,0-7.726-3.459-7.726-7.726v-1.653    c0-4.268,3.459-7.726,7.726-7.726s7.726,3.459,7.726,7.726v1.653C106.823,193.004,103.364,196.463,99.097,196.463z"/>
	</g>
</g>















</svg>
