<?xml version="1.0" encoding="iso-8859-1"?>
<!-- Generator: Adobe Illustrator 19.0.0, SVG Export Plug-In . SVG Version: 6.00 Build 0)  -->
<svg xmlns="http://www.w3.org/2000/svg" xmlns:xlink="http://www.w3.org/1999/xlink" version="1.1" id="Layer_1" x="0px" y="0px" viewBox="0 0 512 512" style="enable-background:new 0 0 512 512;" xml:space="preserve" width="512" height="512">
<g id="XMLID_1845_">
	<circle id="XMLID_2087_" style="fill:#D8AD8F;" cx="256" cy="256" r="256"/>
	<path id="XMLID_118_" style="fill:#C19476;" d="M481.684,273.722c-0.461-9.367-3.037-18.699-7.45-26.983   c-1.159-2.178-2.366-4.157-3.533-6.071c-1.935-3.175-4.128-6.773-4.18-8.578c-0.027-0.905,0.436-2.891,0.844-4.643   c0.249-1.067,0.495-2.135,0.71-3.185c4.849-23.571-3.28-49.473-21.745-69.288c-8.943-9.596-19.081-17.558-29.834-23.593   c-1.842-6.828-5.06-13.223-9.553-18.862c-7.51-9.443-18.159-16.021-29.988-18.522c-3.538-0.747-7.158-1.127-10.761-1.127   c-0.746,0-1.492,0.016-2.237,0.048c-9.442-15.3-24.723-26.182-42.751-29.985c-4.52-0.95-9.136-1.432-13.722-1.432   c-9.596,0-19.094,2.128-27.768,6.131c-10.658-11.303-24.462-19.077-40.023-22.355c-5.245-1.105-10.604-1.665-15.926-1.665   c-28.958,0-55.173,16.001-68.393,41.713c-3.153,6.083-5.479,12.625-6.911,19.432c-0.354,1.676-0.631,3.245-0.847,4.795   c-0.607,4.123-0.868,8.283-0.797,12.433c-7.437,6.378-13.452,14.359-17.51,23.409c-3.282-0.504-6.627-0.779-10.024-0.779   c-36.735,0-66.622,29.886-66.622,66.622c0,21.183,10.217,41.294,27.32,53.79c11.468,8.395,25.058,12.832,39.301,12.832   c13.876,0,26.771-4.269,37.45-11.555c4.532,2.118,9.349,3.751,14.391,4.815l5.503,1.161l31.966-17.057   c3.361,9.37,8.516,17.516,13.137,24.814c1.355,2.14,2.635,4.161,3.857,6.182c6.146,10.179,8.667,17.756,7.933,23.83   c-0.996,8.175-2.492,49.968,66.044,69.944c2.157,0.634,4.429,1.256,6.768,1.852c16.555,4.203,32.62,6.335,47.749,6.335   c9.607,0,18.955-0.867,27.784-2.576c8.817-1.706,17.318-4.293,25.266-7.689c33.304-14.232,59.549-42.382,70.197-75.281   C480.707,292.245,482.131,282.787,481.684,273.722z"/>
	<path id="XMLID_1599_" style="fill:#C19476;" d="M190.118,443.143c-32.602,0-63.253-12.696-86.306-35.749   c-47.59-47.589-47.59-125.022,0-172.611c23.053-23.053,53.704-35.749,86.306-35.749c32.602,0,63.253,12.696,86.305,35.749   c47.59,47.589,47.59,125.022,0,172.611C253.37,430.447,222.719,443.143,190.118,443.143z"/>
	<path id="XMLID_1332_" style="fill:#C19476;" d="M256,423.92c-92.591,0-167.92-75.328-167.92-167.92S163.409,88.08,256,88.08   S423.92,163.409,423.92,256S348.591,423.92,256,423.92z M256,103.533c-84.07,0-152.467,68.396-152.467,152.467   S171.93,408.467,256,408.467S408.467,340.07,408.467,256S340.07,103.533,256,103.533z"/>
	<g id="XMLID_175_">
		<path id="XMLID_229_" style="fill:#B9F268;" d="M402.049,152.529c-4.049,19.264-22.551,31.781-41.794,28.608    c-0.536-0.093-1.071-0.185-1.607-0.299c-8.334-1.762-15.391-6.222-20.48-12.269l-87.318,46.595l-45.812,24.446L174.317,256    c-21.819-4.605-37.406-22.54-40.043-43.505c-0.165-1.37-0.288-2.751-0.34-4.141c-0.185-4.172,0.144-8.427,1.051-12.702    c4.244-20.161,19.882-34.985,38.766-39.209c-1.7-2.369-3.235-4.873-4.564-7.479c-1.144-2.143-2.122-4.368-2.988-6.655    c-3.585-9.478-4.862-19.934-3.286-30.566c0.175-1.267,0.402-2.524,0.67-3.791c1.164-5.532,3.029-10.724,5.511-15.515    c12.362-24.044,39.683-37.88,67.415-32.039c17.019,3.585,30.885,13.887,39.456,27.537c11.445-9.045,26.671-13.114,42.062-9.879    c17.678,3.729,31.266,16.215,37.179,31.956c5.81-1.823,12.166-2.246,18.554-0.896c8.674,1.834,15.968,6.583,21.088,13.022    c4.728,5.934,7.592,13.3,7.963,21.129C402.945,146.306,402.708,149.417,402.049,152.529z"/>
		<path id="XMLID_224_" style="fill:#8BCC3F;" d="M402.049,152.529c-4.049,19.264-22.551,31.781-41.794,28.608    c-0.536-0.093-1.071-0.185-1.607-0.299c-8.334-1.762-15.391-6.222-20.48-12.269l-87.318,46.595l-45.812,24.446    c-0.082-0.69-0.144-1.38-0.196-2.081c-4.78,1.082-9.715,1.648-14.721,1.648c-19.728,0-38.333-8.674-51.035-23.807    c-1.875-2.235-3.595-4.574-5.151-7.016c-0.185-4.172,0.144-8.427,1.051-12.702c4.244-20.161,19.882-34.985,38.766-39.209    c-1.7-2.369-3.235-4.873-4.564-7.479c-1.144-2.143-2.122-4.368-2.988-6.655c-3.585-9.478-4.862-19.934-3.286-30.566    c8.314-3.729,17.523-5.81,27.207-5.81c25.476,0,47.646,14.381,58.854,35.449c24.22-16.988,55.795-25.981,91.542-25.981    c14.762,0,30.122,1.545,45.658,4.595c2.905,0.567,5.8,1.288,8.674,2.143c4.728,5.934,7.592,13.3,7.963,21.129    C402.945,146.306,402.708,149.417,402.049,152.529z"/>
		<g id="XMLID_1686_">
			<g id="XMLID_1665_">
				<path id="XMLID_1839_" style="fill:#FB4239;" d="M170.454,211.239c0,28.258-22.901,51.169-51.169,51.169      c-11.28,0-21.716-3.657-30.174-9.849c-12.733-9.303-20.995-24.343-20.995-41.321c0-28.258,22.911-51.169,51.169-51.169      c24.683,0,45.276,17.472,50.098,40.713C170.083,204.161,170.454,207.654,170.454,211.239z"/>
				<path id="XMLID_1837_" style="fill:#E21717;" d="M170.454,211.239c0,28.258-22.901,51.169-51.169,51.169      c-11.28,0-21.716-3.657-30.174-9.849c4.244-6.274,9.148-12.228,14.701-17.781c18.09-18.08,40.857-29.793,65.571-33.996      C170.083,204.161,170.454,207.654,170.454,211.239z"/>
			</g>
			<path id="XMLID_1683_" style="fill:#E21717;" d="M119.288,249.056c-4.267,0-7.726-3.459-7.726-7.726v-60.176     c0-4.267,3.459-7.726,7.726-7.726c4.267,0,7.726,3.459,7.726,7.726v60.176C127.015,245.597,123.555,249.056,119.288,249.056z"/>
			<path id="XMLID_1723_" style="fill:#E21717;" d="M149.376,218.968H89.2c-4.267,0-7.726-3.459-7.726-7.726     c0-4.267,3.459-7.726,7.726-7.726h60.176c4.267,0,7.726,3.459,7.726,7.726C157.103,215.509,153.643,218.968,149.376,218.968z"/>
		</g>
		<g id="XMLID_1718_">
			<g id="XMLID_1722_">
				<path id="XMLID_1782_" style="fill:#FB4239;" d="M241.289,172.555c0,12.527-4.502,23.993-11.971,32.883      c-9.385,11.178-23.468,18.286-39.198,18.286c-15.731,0-29.813-7.108-39.198-18.286c-7.469-8.89-11.971-20.356-11.971-32.883      c0-28.258,22.911-51.169,51.169-51.169C218.378,121.386,241.289,144.297,241.289,172.555z"/>
				<path id="XMLID_1775_" style="fill:#E21717;" d="M229.318,205.439c-9.385,11.178-23.468,18.286-39.198,18.286      c-15.731,0-29.813-7.108-39.198-18.286c12.465-4.224,25.652-6.408,39.198-6.408      C203.656,199.031,216.863,201.215,229.318,205.439z"/>
			</g>
			<path id="XMLID_1720_" style="fill:#E21717;" d="M190.117,210.37c-4.267,0-7.726-3.459-7.726-7.726v-60.176     c0-4.267,3.459-7.726,7.726-7.726s7.726,3.459,7.726,7.726v60.176C197.844,206.91,194.384,210.37,190.117,210.37z"/>
			<path id="XMLID_914_" style="fill:#E21717;" d="M220.205,180.282h-60.176c-4.267,0-7.726-3.459-7.726-7.726     s3.459-7.726,7.726-7.726h60.176c4.267,0,7.726,3.459,7.726,7.726S224.472,180.282,220.205,180.282z"/>
		</g>
	</g>
	<g id="XMLID_1068_">
		<g id="XMLID_909_">
			<g id="XMLID_946_">
				<path style="fill:#F9E8D4;" d="M255.903,155.385c-6.694,4.92-12.963,10.564-17.666,17.413      c-4.429,6.449-7.357,13.795-10.019,21.152c-6.127,16.932-11.061,35.436-6.14,52.757c3.263,11.486,10.559,21.309,16.737,31.528      c6.178,10.218,11.479,21.827,10.041,33.681c-0.979,8.065,0.611,39.539,61.277,54.956c30.029,7.631,62.438,9.003,90.93-3.172      c28.491-12.175,52.026-36.373,61.577-65.848c2.443-7.538,3.998-15.45,3.609-23.365c-0.35-7.131-2.294-14.179-5.65-20.481      c-3.722-6.989-9.301-13.551-9.529-21.465c-0.111-3.857,1.096-7.612,1.872-11.392c4.073-19.829-4.113-40.829-17.914-55.639      c-13.801-14.81-31.974-26.459-51.839-30.356C332.382,125.188,286.653,132.783,255.903,155.385z"/>
			</g>
			<circle id="XMLID_940_" style="fill:#FEC007;" cx="371.841" cy="251.558" r="49.949"/>
			<path id="XMLID_1616_" style="fill:#F9E8D4;" d="M462.634,297.856c-9.539,29.473-33.079,53.672-61.574,65.849     c-7.16,3.06-14.567,5.264-22.128,6.727c-22.509,4.358-46.317,2.143-68.796-3.564c-2.143-0.546-4.213-1.113-6.212-1.7     c-54.569-15.906-56.011-45.472-55.063-53.25c1.432-11.857-3.873-23.468-10.044-33.687c-6.181-10.219-13.475-20.037-16.74-31.524     c-2.987-10.508-2.349-21.469,0-32.234c0.762-3.513,1.7-7.005,2.751-10.456c1.051-3.4,2.194-6.758,3.389-10.065     c2.668-7.355,5.594-14.711,10.024-21.16c4.698-6.84,10.971-12.486,17.668-17.41c30.741-22.602,76.481-30.195,127.289-20.222     c19.852,3.894,38.024,15.535,51.828,30.349c13.804,14.814,21.994,35.809,17.915,55.64c-0.773,3.781-1.978,7.531-1.865,11.394     c0.227,7.912,5.8,14.474,9.519,21.459c3.358,6.305,5.305,13.361,5.656,20.48C466.641,282.404,465.086,290.315,462.634,297.856z"/>
			<path id="XMLID_1607_" style="fill:#EFCDB1;" d="M303.924,365.168c-54.569-15.906-56.011-45.472-55.063-53.25     c1.432-11.857-3.873-23.468-10.044-33.687c-6.181-10.219-13.475-20.037-16.74-31.524c-2.987-10.508-2.349-21.469,0-32.234     c0.762-3.513,1.7-7.005,2.751-10.456c19.295,5.687,36.973,16.143,51.591,30.761C311.609,269.969,320.778,321.478,303.924,365.168     z"/>
			<circle id="XMLID_915_" style="fill:#FEC007;" cx="371.841" cy="251.558" r="49.949"/>
			<circle id="XMLID_910_" style="fill:#F9DE69;" cx="364.439" cy="236.9" r="16.724"/>
		</g>
		<path id="XMLID_877_" style="fill:#EFCDB1;" d="M281.695,223.18c-4.267,0-7.726-3.459-7.726-7.726v-0.966    c0-4.267,3.459-7.726,7.726-7.726c4.267,0,7.726,3.459,7.726,7.726v0.966C289.422,219.72,285.962,223.18,281.695,223.18z"/>
		<path id="XMLID_1382_" style="fill:#EFCDB1;" d="M308.636,176.542c-4.267,0-7.726-3.459-7.726-7.726v-0.966    c0-4.267,3.459-7.726,7.726-7.726c4.267,0,7.726,3.459,7.726,7.726v0.966C316.362,173.083,312.903,176.542,308.636,176.542z"/>
	</g>
	<g id="XMLID_2424_">
		<circle id="XMLID_1240_" style="fill:#B96340;" cx="190.117" cy="321.088" r="106.602"/>
		<path id="XMLID_1285_" style="fill:#A24223;" d="M265.499,396.47c-41.631,41.631-109.129,41.631-150.76,0    c-2.579-2.579-5.004-5.267-7.27-8.028c41.879,34.201,103.68,31.782,142.732-7.27c39.052-39.052,41.471-100.854,7.27-142.732    c2.761,2.265,5.449,4.691,8.027,7.27C307.13,287.341,307.13,354.839,265.499,396.47z"/>
	</g>
	<path id="XMLID_1320_" style="fill:#A24223;" d="M170.495,372.926c-4.267,0-7.726-3.459-7.726-7.726v-0.966   c0-4.267,3.459-7.726,7.726-7.726c4.267,0,7.726,3.459,7.726,7.726v0.966C178.221,369.466,174.762,372.926,170.495,372.926z"/>
	<path id="XMLID_1850_" style="fill:#A24223;" d="M208.74,380.936c-4.267,0-7.726-3.459-7.726-7.726v-0.966   c0-4.267,3.459-7.726,7.726-7.726s7.726,3.459,7.726,7.726v0.966C216.466,377.476,213.007,380.936,208.74,380.936z"/>
	<path id="XMLID_1847_" style="fill:#A24223;" d="M238.487,372.443c-4.267,0-7.726-3.459-7.726-7.726v-0.966   c0-4.267,3.459-7.726,7.726-7.726s7.726,3.459,7.726,7.726v0.966C246.213,368.983,242.754,372.443,238.487,372.443z"/>
	<path id="XMLID_1824_" style="fill:#A24223;" d="M208.74,306.58c-4.267,0-7.726-3.459-7.726-7.726v-0.966   c0-4.267,3.459-7.726,7.726-7.726s7.726,3.459,7.726,7.726v0.966C216.466,303.121,213.007,306.58,208.74,306.58z"/>
	<path id="XMLID_1823_" style="fill:#A24223;" d="M242.608,329.297c-4.267,0-7.726-3.459-7.726-7.726v-0.966   c0-4.267,3.459-7.726,7.726-7.726s7.726,3.459,7.726,7.726v0.966C250.334,325.838,246.875,329.297,242.608,329.297z"/>
	<path id="XMLID_1820_" style="fill:#A24223;" d="M190.764,441.884c-4.267,0-7.726-3.459-7.726-7.726v-0.966   c0-4.267,3.459-7.726,7.726-7.726s7.726,3.459,7.726,7.726v0.966C198.49,438.425,195.031,441.884,190.764,441.884z"/>
	<path id="XMLID_1425_" style="fill:#A24223;" d="M228.185,453.827c-4.267,0-7.726-3.459-7.726-7.726v-0.966   c0-4.267,3.459-7.726,7.726-7.726c4.267,0,7.726,3.459,7.726,7.726v0.966C235.911,450.368,232.452,453.827,228.185,453.827z"/>
	<path id="XMLID_159_" style="fill:#A24223;" d="M56.145,292.508c-4.267,0-7.726-3.459-7.726-7.726v-0.966   c0-4.267,3.459-7.726,7.726-7.726s7.726,3.459,7.726,7.726v0.966C63.871,289.048,60.412,292.508,56.145,292.508z"/>
</g>















</svg>
