<?xml version="1.0" encoding="iso-8859-1"?>
<!-- Generator: Adobe Illustrator 19.0.0, SVG Export Plug-In . SVG Version: 6.00 Build 0)  -->
<svg xmlns="http://www.w3.org/2000/svg" xmlns:xlink="http://www.w3.org/1999/xlink" version="1.1" id="Layer_1" x="0px" y="0px" viewBox="0 0 512 512" style="enable-background:new 0 0 512 512;" xml:space="preserve" width="512" height="512">
<g id="XMLID_8_">
	<g id="XMLID_1037_">
		<path id="XMLID_486_" style="fill:#FEC007;" d="M308.25,292.772c0,33.652-25.671,62.324-61.621,73.197    c-9.999,3.032-20.781,4.678-32.035,4.678c-51.733,0-93.667-34.867-93.667-77.875c0-8.865,1.787-17.388,5.07-25.329    c12.64-30.58,47.526-52.556,88.597-52.556c9.337,0,18.352,1.134,26.865,3.253c28.913,7.188,51.954,25.681,61.722,49.303    C306.463,275.384,308.25,283.907,308.25,292.772z"/>
		<path id="XMLID_481_" style="fill:#FE9700;" d="M308.25,292.772c0,33.652-25.671,62.324-61.621,73.197    c-8.754-21.585-13.202-47.516-13.202-77.654c0-23.743,2.781-47.516,8.031-70.175c28.913,7.188,51.954,25.681,61.722,49.303    C306.463,275.384,308.25,283.907,308.25,292.772z"/>
		<path id="XMLID_488_" style="fill:#FE9700;" d="M308.25,292.77c0,43.008-41.934,77.875-93.657,77.875    c-51.733,0-93.667-34.867-93.667-77.875c0-8.865,1.787-17.388,5.07-25.329H303.18C306.463,275.382,308.25,283.905,308.25,292.77z"/>
		<path id="XMLID_507_" style="fill:#F9E8D4;" d="M345.867,286.427v0.331c-0.04,27.156-4.588,52.395-15.932,73.337    c-0.944,1.747-1.938,3.474-2.992,5.16c-11.344,18.362-28.461,33.019-53.058,42.215c-18.442,6.897-41.081,10.712-68.649,10.712    c-107.501,0-203.728-58.068-205.234-130.039C0.002,288.1,0.001,288.057,0,288.013c-0.015-0.873,0.695-1.586,1.568-1.586H345.867z"/>
		<path id="XMLID_505_" style="fill:#EFCDB1;" d="M345.867,286.427v0.331c-0.04,27.156-4.588,52.395-15.932,73.337    c-0.944,1.747-1.938,3.474-2.992,5.16c-11.344,18.362-28.461,33.019-53.058,42.215c-26.715-26.163-40.458-66.159-40.458-119.157    c0-0.633,0-1.255,0.01-1.887H345.867z"/>
		<path id="XMLID_479_" style="fill:#EFCDB1;" d="M345.867,286.759c-0.04,27.156-4.588,52.395-15.932,73.337    c-0.944,1.747-1.938,3.474-2.992,5.16c-19.858,32.126-57.375,52.927-121.707,52.927c-107.501,0-203.728-58.068-205.234-130.039    C0.002,288.1,0.001,288.057,0,288.013c-0.015-0.873,0.695-1.586,1.568-1.586h0C14.529,351.612,104.974,402.12,205.236,402.12    s135.37-50.498,140.049-115.693h0.572C345.857,286.538,345.857,286.648,345.867,286.759z"/>
	</g>
	<g id="XMLID_1035_">
		<path id="XMLID_906_" style="fill:#F9E8D4;" d="M512,288.316c0,108.353-58.991,140.623-131.76,140.623    s-131.76-32.27-131.76-140.623S307.472,83.06,380.24,83.06S512,179.963,512,288.316z"/>
		<path id="XMLID_949_" style="fill:#EFCDB1;" d="M511.998,288.315c0,108.354-58.991,140.621-131.756,140.621    c-2.701,0-5.371-0.04-8.031-0.14c69.03-2.359,123.725-36.142,123.725-140.48S441.231,90.259,372.211,83.462    c2.66-0.271,5.331-0.402,8.031-0.402C453.007,83.06,511.998,179.96,511.998,288.315z"/>
		<path id="XMLID_963_" style="fill:#EFCDB1;" d="M380.24,411.751c-51.248,0-92.94-48.773-92.94-108.722    c0-28.528,9.337-55.469,26.291-75.858c17.622-21.193,41.292-32.864,66.649-32.864s49.028,11.671,66.65,32.864    c16.954,20.389,26.291,47.33,26.291,75.858s-9.337,55.468-26.291,75.858C429.268,400.079,405.598,411.751,380.24,411.751z"/>
		<ellipse id="XMLID_929_" style="fill:#FEC007;" cx="380.24" cy="303.028" rx="77.882" ry="93.663"/>
		<path id="XMLID_977_" style="fill:#FE9700;" d="M458.117,303.032c0,51.723-34.867,93.657-77.875,93.657    c-2.54,0-5.06-0.151-7.529-0.432c39.475-4.558,70.356-44.554,70.356-93.225c0-48.681-30.881-88.677-70.356-93.235    c2.47-0.281,4.99-0.432,7.529-0.432C423.25,209.365,458.117,251.3,458.117,303.032z"/>
	</g>
</g>















</svg>
